<svg viewBox="0 0 554.876 554.876" xmlns="http://www.w3.org/2000/svg">
		<path d="m535.74 148.85h-90.588c-24.786-68.661-90.514-117.74-167.72-117.74s-142.93 49.083-167.72 117.74h-90.589c-10.569 0-19.131 8.567-19.131 19.131v336.65c0 10.568 8.568 19.131 19.131 19.131h516.61c10.569 0 19.132-8.568 19.132-19.131v-336.64c0-10.57-8.563-19.137-19.132-19.137zm-258.31-56.543c42.388 0 79.475 22.717 100.02 56.542h-200.05c20.55-33.825 57.638-56.542 100.02-56.542zm131.94 264.37c0 9.645-7.815 17.459-17.461 17.459h-76.64v76.643c0 9.645-7.815 17.459-17.467 17.459h-40.74c-9.646 0-17.46-7.814-17.46-17.459v-76.643h-76.634c-9.645 0-17.46-7.814-17.46-17.459v-40.749c0-9.645 7.815-17.459 17.46-17.459h76.641v-76.635c0-9.646 7.815-17.46 17.46-17.46h40.741c9.645 0 17.466 7.815 17.466 17.46v76.635h76.641c9.645 0 17.46 7.814 17.46 17.459v40.749h-7e-3z"/>
</svg>
