<svg viewBox="0 0 512 512" xmlns="http://www.w3.org/2000/svg">
		<path d="m446.91 299.77c-5.865-76.359-41.417-124.21-72.781-166.44-29.042-39.092-54.125-72.85-54.125-122.65 0-4-2.24-7.656-5.792-9.489-3.563-1.844-7.844-1.542-11.083 0.812-47.104 33.706-86.406 90.515-100.14 144.72-9.531 37.737-10.792 80.161-10.969 108.18-43.5-9.291-53.354-74.359-53.458-75.068-0.49-3.375-2.552-6.312-5.552-7.916-3.031-1.583-6.594-1.698-9.667-0.177-2.281 1.104-55.99 28.394-59.115 137.36-0.219 3.625-0.229 7.261-0.229 10.896 0 105.86 86.135 191.99 192 191.99 0.146 0.01 0.302 0.031 0.427 0h0.135c105.6-0.303 191.44-86.317 191.44-191.99 0-5.323-1.094-20.228-1.094-20.228zm-190.91 190.88c-35.292 0-64-30.581-64-68.172 0-1.281-0.01-2.573 0.083-4.156 0.427-15.853 3.438-26.675 6.74-33.873 6.188 13.291 17.25 25.509 35.219 25.509 5.896 0 10.667-4.771 10.667-10.666 0-15.186 0.313-32.706 4.094-48.518 3.365-14.02 11.406-28.936 21.594-40.893 4.531 15.52 13.365 28.081 21.99 40.341 12.344 17.54 25.104 35.675 27.344 66.6 0.135 1.833 0.271 3.677 0.271 5.656-2e-3 37.59-28.71 68.172-64.002 68.172z"/>
</svg>
