<?xml version="1.0" encoding="utf-8"?>
<!-- Generator: Adobe Illustrator 19.0.0, SVG Export Plug-In . SVG Version: 6.00 Build 0)  -->
<svg version="1.1" id="Layer_1" xmlns="http://www.w3.org/2000/svg" xmlns:xlink="http://www.w3.org/1999/xlink" x="0px" y="0px"
	 viewBox="0 0 231.5 231.5" style="enable-background:new 0 0 231.5 231.5;" xml:space="preserve">
<style type="text/css">
	.st0{fill:#E7EFF6;}
	.st1{fill:#233E58;}
	.st2{fill:#63ACE5;}
	.st3{fill:#4B86B4;}
	.st4{fill:#ADCBE3;}
</style>
<g id="XMLID_1_">
	<path id="XMLID_33_" class="st0" d="M231.5,115.7c0,55.6-39.5,102.2-91.8,113.3c-2.9,0.6-5.8,1.1-8.8,1.5L75,133.1l-13-22.8
		L25.6,46.9l-1.2-2.1c4.7-6.1,10-11.6,15.8-16.6C60.5,10.6,86.9,0,115.7,0C179.6,0,231.5,51.9,231.5,115.7z"/>
	<g id="XMLID_28_">
		<path id="XMLID_31_" class="st1" d="M170.8,41.2l-33.9,32.5l25.6,77.4c0.4,1.2,0.1,2.5-0.8,3.5l-15.2,15.2l-40.7-66.2L75,133.1
			l-4.1,4l3.1,19.1c0.2,1.5-0.2,2.9-1.3,4l-13.4,13.4l-11-31.6l-31.6-11l13.4-13.4c1-1,2.5-1.5,4-1.3l19.1,3.1l8.7-9.1l24.8-25.8
			L25.6,46.9l-2-1.2c0.2-0.3,0.5-0.6,0.7-0.9c4.7-6.1,10-11.6,15.8-16.6l76.4,25.3l32.5-33.9c5.9-6.2,15.8-6.3,21.9-0.2
			S177,35.2,170.8,41.2z"/>
	</g>
	<path id="XMLID_27_" class="st2" d="M113.5,231.4c-38.9-0.7-73.2-20.7-93.6-50.8c-4.1-8.5-6.5-17.9-6.5-27.5
		c0-7.6,0.9-15.3,3.2-22.1l31.6,11l11,31.6C59.3,207.1,82,227.4,113.5,231.4z"/>
	<path id="XMLID_26_" class="st3" d="M86.7,84.5L62,110.3l-8.7,9.1l-19.1-3.1c-1.5-0.2-2.9,0.2-4,1.3L16.7,131
		c-2.3,6.8-3.2,14.5-3.2,22.1c0,9.6,2.4,19,6.5,27.5C7.4,162.1,0,139.8,0,115.7c0-26.3,8.8-50.6,23.7-70l2,1.2L86.7,84.5z"/>
	<path id="XMLID_16_" class="st4" d="M131.5,202.1c0,9.8,2.9,19,8.1,26.9c-2.9,0.6-5.8,1.1-8.8,1.5c-5,0.6-10,1-15.1,1
		c-0.7,0-1.5,0-2.2,0c-31.5-4.1-54.2-24.4-54.2-57.9l13.4-13.4c1-1.1,1.5-2.5,1.3-4l-3.1-19.1l4.1-4l30.7-29.5l40.7,66.2
		C136,179.5,131.5,187.6,131.5,202.1z"/>
</g>
</svg>
